<?xml version="1.0" encoding="UTF-8"?>
<svg width="700pt" height="700pt" version="1.1" viewBox="0 0 700 700" xmlns="http://www.w3.org/2000/svg">
 <g>
  <path d="m408.8 210h-117.6c-5.6016 0-11.199 5.6016-11.199 11.199v117.6c0 5.6016 5.6016 11.199 11.199 11.199h117.6c5.6016 0 11.199-5.6016 11.199-11.199v-117.6c0-5.5977-5.6016-11.199-11.199-11.199z"/>
  <path d="m604.8 406h-117.6c-5.6016 0-11.199 5.6016-11.199 11.199v117.6c0 5.6016 5.6016 11.199 11.199 11.199h117.6c5.6016 0 11.199-5.6016 11.199-11.199v-117.6c0-5.5977-5.6016-11.199-11.199-11.199z"/>
  <path d="m212.8 210h-117.6c-5.6016 0-11.199 5.6016-11.199 11.199v117.6c0 5.6016 5.6016 11.199 11.199 11.199h117.6c5.6016 0 11.199-5.6016 11.199-11.199v-117.6c0-5.5977-5.6016-11.199-11.199-11.199z"/>
  <path d="m604.8 210h-117.6c-5.6016 0-11.199 5.6016-11.199 11.199v117.6c0 5.6016 5.6016 11.199 11.199 11.199h117.6c5.6016 0 11.199-5.6016 11.199-11.199v-117.6c0-5.5977-5.6016-11.199-11.199-11.199z"/>
  <path d="m212.8 406h-117.6c-5.6016 0-11.199 5.6016-11.199 11.199v117.6c0 5.6016 5.6016 11.199 11.199 11.199h117.6c5.6016 0 11.199-5.6016 11.199-11.199v-117.6c0-5.5977-5.6016-11.199-11.199-11.199z"/>
  <path d="m212.8 14h-117.6c-5.6016 0-11.199 5.6016-11.199 11.199v117.6c0 5.6016 5.6016 11.199 11.199 11.199h117.6c5.6016 0 11.199-5.6016 11.199-11.199v-117.6c0-5.5977-5.6016-11.199-11.199-11.199z"/>
  <path d="m408.8 14h-117.6c-5.6016 0-11.199 5.6016-11.199 11.199v117.6c0 5.6016 5.6016 11.199 11.199 11.199h117.6c5.6016 0 11.199-5.6016 11.199-11.199v-117.6c0-5.5977-5.6016-11.199-11.199-11.199z"/>
  <path d="m604.8 14h-117.6c-5.6016 0-11.199 5.6016-11.199 11.199v117.6c0 5.6016 5.6016 11.199 11.199 11.199h117.6c5.6016 0 11.199-5.6016 11.199-11.199v-117.6c0-5.5977-5.6016-11.199-11.199-11.199z"/>
  <path d="m408.8 406h-117.6c-5.6016 0-11.199 5.6016-11.199 11.199v117.6c0 5.6016 5.6016 11.199 11.199 11.199h117.6c5.6016 0 11.199-5.6016 11.199-11.199v-117.6c0-5.5977-5.6016-11.199-11.199-11.199z"/>
 </g>
</svg>
